<?xml version="1.0" standalone="no"?>
<!DOCTYPE svg PUBLIC "-//W3C//DTD SVG 20010904//EN"
 "http://www.w3.org/TR/2001/REC-SVG-20010904/DTD/svg10.dtd">
<svg version="1.0" xmlns="http://www.w3.org/2000/svg"
 width="256.000000pt" height="256.000000pt" viewBox="0 0 256.000000 256.000000"
 preserveAspectRatio="xMidYMid meet">

<g transform="translate(0.000000,256.000000) scale(0.100000,-0.100000)"
fill="#000000" stroke="none">
<path d="M1115 2543 c-128 -19 -287 -69 -400 -126 -284 -141 -529 -423 -629
-721 -130 -390 -78 -782 149 -1127 64 -96 239 -272 335 -336 401 -268 868
-297 1281 -81 610 319 860 1045 574 1665 -59 128 -141 241 -259 359 -177 177
-349 277 -574 336 -104 27 -135 31 -282 33 -91 2 -178 1 -195 -2z m98 -90 c-7
-2 -19 -2 -25 0 -7 3 -2 5 12 5 14 0 19 -2 13 -5z m-100 -10 c-7 -2 -19 -2
-25 0 -7 3 -2 5 12 5 14 0 19 -2 13 -5z m-46 -9 c-3 -3 -12 -4 -19 -1 -8 3 -5
6 6 6 11 1 17 -2 13 -5z m963 -249 c13 -14 21 -25 18 -25 -2 0 -15 11 -28 25
-13 14 -21 25 -18 25 2 0 15 -11 28 -25z m132 -127 c27 -32 48 -58 46 -58 -2
0 -37 37 -78 83 -41 45 -61 71 -46 57 15 -14 51 -51 78 -82z m-667 -74 c85
-28 85 -28 85 -8 0 14 7 15 37 11 21 -4 43 -14 50 -23 7 -10 41 -21 86 -29 41
-7 85 -16 97 -20 17 -5 21 -3 20 12 -1 10 1 29 5 42 7 21 12 23 47 18 47 -6
44 -4 53 -45 6 -31 5 -34 -35 -50 -39 -16 -41 -18 -34 -52 3 -19 9 -59 13 -88
9 -60 39 -108 67 -105 11 1 13 0 7 -3 -8 -4 -11 -15 -7 -30 4 -17 1 -26 -10
-30 -9 -3 -16 -13 -16 -20 0 -12 4 -12 21 -4 32 17 47 6 17 -14 -26 -17 -26
-17 -11 -64 8 -26 16 -57 19 -69 8 -40 22 -69 49 -101 l27 -32 -31 -39 c-41
-51 -50 -97 -25 -116 11 -8 29 -15 42 -15 13 0 21 -4 18 -9 -3 -5 -24 -7 -46
-4 -40 6 -40 5 -62 -43 -12 -27 -22 -64 -22 -81 0 -20 -5 -33 -13 -33 -7 0
-13 -4 -13 -10 0 -5 -11 -20 -24 -33 -15 -15 -29 -46 -36 -83 -20 -96 -31
-111 -101 -130 -33 -9 -63 -23 -66 -31 -3 -8 -14 -11 -28 -7 -24 6 -125 -39
-125 -56 0 -5 -7 -7 -15 -4 -14 6 -29 2 -90 -22 -26 -10 -33 -11 -72 -13 -17
0 -38 -7 -45 -14 -28 -28 -49 -34 -84 -23 -19 6 -34 17 -34 23 0 19 -69 17
-76 -2 -9 -23 -24 -18 -24 9 0 19 -8 26 -45 36 -43 12 -78 9 -73 -7 2 -4 -2
-8 -7 -8 -5 0 -9 3 -8 6 1 3 -11 5 -28 4 -24 -2 -29 2 -29 22 0 15 -6 23 -18
23 -10 0 -23 5 -29 11 -6 6 -59 11 -124 12 l-114 2 -2 48 c-1 26 2 59 7 72 11
30 -14 123 -36 132 -19 7 -18 43 1 43 18 0 19 11 3 44 -9 21 -16 24 -37 19
-25 -6 -25 -5 -9 14 21 23 23 62 4 69 -7 3 -11 14 -9 27 7 36 -31 120 -61 135
-35 18 -33 42 8 74 47 38 60 103 25 129 l-24 19 32 0 c27 0 33 5 44 38 6 20
16 43 22 50 6 8 6 17 -2 26 -9 11 -7 15 10 19 18 5 21 11 17 37 -3 23 -1 30 9
26 16 -6 28 16 53 98 21 66 42 89 94 102 18 4 26 13 26 28 1 20 1 20 15 2 14
-18 18 -17 114 30 73 36 100 54 101 68 0 15 3 16 15 6 19 -16 115 5 173 38
l43 24 51 -21 c64 -26 62 -26 78 7 l14 27 5 -34 c6 -32 10 -35 76 -57z m810
-129 c16 -27 24 -45 18 -40 -6 6 -23 33 -38 60 -16 28 -24 46 -18 40 6 -5 23
-32 38 -60z m-1785 -321 c0 -8 -4 -12 -10 -9 -5 3 -10 10 -10 16 0 5 5 9 10 9
6 0 10 -7 10 -16z m-383 -16 c-3 -8 -6 -5 -6 6 -1 11 2 17 5 13 3 -3 4 -12 1
-19z m-10 -60 c-3 -7 -5 -2 -5 12 0 14 2 19 5 13 2 -7 2 -19 0 -25z m2310 0
c-3 -7 -5 -2 -5 12 0 14 2 19 5 13 2 -7 2 -19 0 -25z m-2320 -55 c-3 -10 -5
-4 -5 12 0 17 2 24 5 18 2 -7 2 -21 0 -30z m2330 5 c-3 -8 -6 -5 -6 6 -1 11 2
17 5 13 3 -3 4 -12 1 -19z m-357 -8 c0 -5 -4 -10 -10 -10 -5 0 -10 5 -10 10 0
6 5 10 10 10 6 0 10 -4 10 -10z m-1973 -257 c-3 -10 -5 -2 -5 17 0 19 2 27 5
18 2 -10 2 -26 0 -35z m418 -23 c3 -5 -1 -10 -9 -10 -9 0 -16 5 -16 10 0 6 4
10 9 10 6 0 13 -4 16 -10z m1902 -32 c-3 -8 -6 -5 -6 6 -1 11 2 17 5 13 3 -3
4 -12 1 -19z m-2310 -10 c-3 -8 -6 -5 -6 6 -1 11 2 17 5 13 3 -3 4 -12 1 -19z
m10 -50 c-3 -8 -6 -5 -6 6 -1 11 2 17 5 13 3 -3 4 -12 1 -19z m2290 0 c-3 -8
-6 -5 -6 6 -1 11 2 17 5 13 3 -3 4 -12 1 -19z m-372 -8 c3 -5 1 -10 -4 -10 -6
0 -11 5 -11 10 0 6 2 10 4 10 3 0 8 -4 11 -10z m-1519 -47 c-10 -10 -19 5 -10
18 6 11 8 11 12 0 2 -7 1 -15 -2 -18z m1695 -380 c-5 -10 -26 -36 -46 -58 -32
-36 -31 -34 7 17 44 59 56 72 39 41z m-1361 -3 c0 -5 -4 -10 -10 -10 -5 0 -10
5 -10 10 0 6 5 10 10 10 6 0 10 -4 10 -10z m1264 -112 c-13 -24 -37 -48 -47
-48 -6 0 2 14 18 30 31 32 41 38 29 18z m-84 -83 c-7 -9 -27 -25 -44 -37 -23
-15 -21 -11 9 16 43 38 55 45 35 21z m-125 -95 c-3 -6 -21 -17 -38 -26 -36
-19 -31 -9 10 17 34 21 36 22 28 9z m-572 -197 c-7 -2 -19 -2 -25 0 -7 3 -2 5
12 5 14 0 19 -2 13 -5z"/>
<path d="M1120 1921 c-19 -4 -34 -11 -33 -17 1 -5 4 -23 7 -39 l7 -30 -18 33
c-19 37 -42 42 -50 11 -4 -14 -8 -17 -13 -9 -11 17 -101 -30 -118 -61 -7 -13
-11 -48 -10 -79 l3 -55 -58 -1 c-32 -1 -70 -7 -83 -15 -30 -16 -73 -91 -55
-97 6 -2 21 -13 33 -24 l23 -20 -22 6 c-13 3 -32 9 -42 12 -16 5 -22 -1 -32
-35 -7 -23 -10 -43 -8 -44 9 -8 109 -47 118 -47 5 0 15 17 22 38 56 175 232
319 422 347 41 6 47 10 47 32 0 31 -16 63 -44 85 -22 18 -38 20 -96 9z"/>
<path d="M1416 1901 c-18 -19 -36 -66 -36 -90 0 -13 17 -24 63 -41 34 -12 81
-33 104 -46 50 -29 53 -29 53 -5 0 30 -11 52 -23 44 -6 -4 -8 3 -4 18 3 13 3
30 -2 37 -6 10 -14 5 -29 -20 -25 -39 -28 -26 -7 27 13 28 13 40 4 51 -8 10
-15 11 -24 4 -9 -8 -14 -5 -17 8 -7 26 -63 34 -82 13z"/>
<path d="M1318 1888 c-9 -7 -20 -29 -23 -49 -6 -35 -5 -37 25 -41 37 -6 43 3
38 58 -3 41 -15 51 -40 32z"/>
<path d="M1185 1735 c-80 -17 -141 -47 -202 -98 -126 -106 -186 -258 -163
-415 17 -120 91 -259 132 -249 15 4 18 1 13 -13 -8 -24 66 -81 143 -110 196
-74 387 -28 524 126 146 166 154 422 18 587 -17 20 -38 37 -46 37 -8 0 -14 6
-14 13 0 35 -115 103 -210 123 -79 17 -116 16 -195 -1z m244 -105 c197 -87
191 -81 110 -116 l-53 -22 -11 22 c-17 34 -126 67 -205 62 -89 -5 -174 -36
-178 -64 -3 -18 -8 -20 -33 -15 l-31 6 6 -44 c14 -108 13 -124 -11 -127 -21
-3 -22 0 -19 55 2 32 7 66 11 75 11 27 2 52 -23 64 -13 6 -23 15 -24 20 0 11
280 142 306 143 10 1 80 -26 155 -59z m-32 -97 l53 -17 0 -49 0 -49 -37 24
c-33 20 -54 24 -172 28 -76 3 -136 9 -138 15 -16 53 176 85 294 48z m-40 -98
c51 -15 103 -61 103 -91 0 -9 11 -14 34 -14 31 0 35 3 38 30 l3 29 78 -45 c42
-25 77 -49 77 -53 0 -8 -139 -101 -151 -101 -5 0 -9 11 -9 25 0 21 -5 25 -28
25 -25 0 -30 -6 -41 -39 -21 -72 -92 -111 -198 -111 l-53 0 0 -75 0 -75 -50 0
-50 0 0 103 c0 103 0 104 28 116 15 7 64 16 109 21 77 7 113 20 113 41 0 24
-168 -8 -268 -51 -27 -12 -64 -36 -82 -55 -28 -28 -32 -39 -28 -72 3 -21 8
-46 12 -55 14 -31 -13 -20 -34 15 -31 50 -34 74 -14 119 35 79 164 148 332
179 104 19 96 49 -14 49 -45 0 -54 -3 -54 -17 0 -13 -15 -23 -50 -34 -28 -8
-52 -13 -55 -11 -8 8 -6 148 2 155 13 13 199 7 250 -8z"/>
<path d="M1715 1627 c-40 -13 -41 -14 -23 -34 62 -71 114 -253 103 -355 -8
-64 -6 -66 80 -71 34 -2 40 1 43 19 4 26 -49 84 -76 84 -37 0 -32 17 8 29 23
7 48 24 61 42 20 28 20 35 10 88 -6 32 -17 70 -24 85 -12 26 -17 27 -62 11
-14 -5 -12 0 9 17 28 24 28 25 13 54 -9 16 -16 26 -17 22 0 -3 -21 -1 -47 6
-34 9 -57 10 -78 3z"/>
<path d="M633 1384 c-10 -28 16 -65 57 -81 48 -19 50 -29 10 -38 -61 -13 -97
-115 -47 -135 12 -5 16 -9 10 -9 -18 -1 -16 -28 5 -81 38 -97 47 -107 101
-114 42 -5 82 2 110 20 2 2 -6 15 -17 31 -69 98 -108 234 -98 344 6 63 5 67
-17 73 -45 12 -107 7 -114 -10z"/>
<path d="M1765 1109 c-16 -48 -109 -199 -123 -199 -4 0 -22 -13 -41 -29 l-35
-28 33 -42 c18 -22 36 -41 41 -41 14 0 32 59 28 93 l-4 34 68 -5 c75 -5 89 1
115 52 15 30 15 30 -23 63 l-39 33 44 -15 c24 -8 45 -15 48 -15 7 0 33 69 33
89 0 15 -14 25 -55 40 -31 12 -60 21 -65 21 -4 0 -16 -23 -25 -51z"/>
<path d="M915 854 c-4 -29 -2 -58 6 -78 17 -41 16 -41 35 -25 16 13 17 11 10
-13 -10 -41 7 -34 39 14 34 52 43 38 16 -24 l-19 -46 41 -15 c87 -32 82 -34
100 33 10 33 22 60 28 60 6 0 8 -8 6 -17 -3 -10 -8 -39 -12 -65 l-6 -48 30 0
c36 0 71 30 71 63 0 12 3 32 6 43 5 19 1 23 -38 29 -75 11 -171 47 -228 84
-30 20 -60 39 -66 43 -8 5 -14 -7 -19 -38z"/>
<path d="M1480 809 c-36 -15 -85 -31 -110 -34 -92 -12 -88 -9 -79 -60 14 -73
24 -85 72 -85 23 0 65 6 92 14 44 11 50 16 48 37 -3 22 -2 23 11 6 14 -18 16
-18 48 -1 60 30 60 31 28 95 -17 32 -34 59 -38 58 -4 -1 -36 -14 -72 -30z"/>
</g>
</svg>
